<svg preserveAspectRatio="xMidYMid meet" data-bbox="0 0 66.81 15.782" viewBox="0 0 66.81 15.782" xmlns="http://www.w3.org/2000/svg">
    <g>
        <path d="M19.17 4.05h4.77v1.29a3.07 3.07 0 0 1 2.77-1.59 3.54 3.54 0 0 1 .95.11l-.39 4.21a3.58 3.58 0 0 0-.53-.1h-.52a2.15 2.15 0 0 0-1.55.56 1.85 1.85 0 0 0-.58 1.37v5.48h-5zm21 5.76v1.05h-7.6a1.06 1.06 0 0 0 .21.54 1.74 1.74 0 0 0 .45.4 1.79 1.79 0 0 0 .6.26 2.59 2.59 0 0 0 .68.09 2.32 2.32 0 0 0 1.14-.25 2.14 2.14 0 0 0 .7-.55l3.52 1.79a5.22 5.22 0 0 1-2.18 1.93 7.37 7.37 0 0 1-3.31.71 7.48 7.48 0 0 1-2.39-.39 6.17 6.17 0 0 1-2-1.15 5.55 5.55 0 0 1-1.42-1.9 6.1 6.1 0 0 1-.54-2.64 6.19 6.19 0 0 1 .49-2.52 5.61 5.61 0 0 1 1.35-1.91 6.1 6.1 0 0 1 2-1.22 7.14 7.14 0 0 1 2.46-.42 6.16 6.16 0 0 1 2.43.46 5.33 5.33 0 0 1 1.87 1.28 5.84 5.84 0 0 1 1.22 2 7.08 7.08 0 0 1 .28 2.44zM35.85 8.2a1.24 1.24 0 0 0-.44-1 1.72 1.72 0 0 0-1.19-.39 1.7 1.7 0 0 0-1.22.46 1.63 1.63 0 0 0-.52.93zm6-4.15h4.85V5.3A3.43 3.43 0 0 1 48 4.22a4 4 0 0 1 2-.47 4.12 4.12 0 0 1 2 .43 3.61 3.61 0 0 1 1.24 1.11 4.16 4.16 0 0 1 .64 1.51A8 8 0 0 1 54 8.48v6.87h-5v-6a2.1 2.1 0 0 0-.26-1.21 1 1 0 0 0-.81-.34 1 1 0 0 0-.8.4 1.79 1.79 0 0 0-.32 1.15v6h-5zm20.3 4.13a.89.89 0 0 0-.35-.77 1.66 1.66 0 0 0-.94-.24 2.91 2.91 0 0 0-1.3.29 5.48 5.48 0 0 0-1.08.67L56 5.69a7.16 7.16 0 0 1 2.45-1.53 8.11 8.11 0 0 1 2.92-.53 6.8 6.8 0 0 1 2.63.45 4 4 0 0 1 1.7 1.24 4.7 4.7 0 0 1 .86 1.85 9.41 9.41 0 0 1 .25 2.23v5.95h-4.49v-.91a2.39 2.39 0 0 1-1.22.93 4.84 4.84 0 0 1-1.55.28 5 5 0 0 1-1.36-.2 3.67 3.67 0 0 1-1.27-.62 3.21 3.21 0 0 1-.92-1.12 3.46 3.46 0 0 1-.42-1.71 2.94 2.94 0 0 1 .61-1.92 4.15 4.15 0 0 1 1.56-1.16 7.51 7.51 0 0 1 2.11-.57 18.2 18.2 0 0 1 2.29-.15zm0 2.49a5.64 5.64 0 0 0-1.76.23.88.88 0 0 0-.66.88.65.65 0 0 0 .11.4.87.87 0 0 0 .27.27 1.61 1.61 0 0 0 .38.16 1.33 1.33 0 0 0 .38.05 1.48 1.48 0 0 0 1.13-.45 1.6 1.6 0 0 0 .43-1.16v-.38zM11.33 0H6L4.32 4.34h3.8l4.3 11h4.91zM0 15.35h9.75L6.38 6.71h-3z" fill="#fff"></path>
    </g>
</svg>