<svg preserveAspectRatio="xMidYMid meet" data-bbox="0 0 38.52 19.31" viewBox="0 0 38.52 19.31" xmlns="http://www.w3.org/2000/svg" role="img">
    <g>
        <path d="M8.34 6.23A4.4 4.4 0 0 1 4.4 8.61 4.38 4.38 0 0 1 0 4.31 4.39 4.39 0 0 1 4.4 0a4.45 4.45 0 0 1 3.93 2.36l-1.94.87a2.26 2.26 0 1 0-2 3.33 2.22 2.22 0 0 0 2-1.18zM12 .16v8.3H9.83V.16zm2.23 0h4.13c1.79 0 2.69 1 2.69 2.29a1.86 1.86 0 0 1-1 1.74 2 2 0 0 1 1.38 1.93c0 1.37-1 2.34-2.7 2.34h-4.54zm2.13 1.93v1.32h1.76c.57 0 .78-.26.78-.66a.61.61 0 0 0-.67-.66zm0 3v1.44h2.13c.57 0 .79-.31.79-.74s-.22-.72-.79-.72zM23.05.16h6.37v2.06h-4.24v1.19h3.48v1.93h-3.48V6.4h4.24v2.06h-6.37zm12.2 0a2.85 2.85 0 0 1 3.11 3A2.91 2.91 0 0 1 36.72 6l1.8 2.51H36l-1.6-2.28h-1.08v2.23H31.2V.16zm-1.93 1.93v2.22h1.81a1 1 0 0 0 1.17-1.1 1 1 0 0 0-1.17-1.12zM.39 10.8h6.16v2.06h-4v1.47H5.9v1.93H2.51v2.84H.39zm25.36-.16H12.22A4.39 4.39 0 0 0 7.82 15a4.39 4.39 0 0 0 4.4 4.31h13.53a4.39 4.39 0 0 0 4.4-4.31 4.39 4.39 0 0 0-4.4-4.36zm0 6.56H12.22a2.26 2.26 0 0 1 0-4.51h13.53a2.26 2.26 0 0 1 0 4.51zm12.7-6.4l-2.78 4.13 2.85 4.17h-2.59l-1.54-2.28-1.53 2.28h-2.59l2.85-4.17-2.78-4.13h2.51l1.54 2.27 1.55-2.27z" fill="#fff"></path>
    </g>
</svg>