<svg preserveAspectRatio="xMidYMid meet" data-bbox="0 0 106.961 20.071" viewBox="0 0 106.961 20.071" xmlns="http://www.w3.org/2000/svg" role="img">
    <g>
        <path d="M30.35 9.74a3.39 3.39 0 0 0-1.07-.52 2.47 2.47 0 0 0-.64-.12 3.19 3.19 0 0 0 1.11-.34 3.33 3.33 0 0 0 .86-.66 2.79 2.79 0 0 0 .56-.9 3 3 0 0 0 .2-1.08 4.09 4.09 0 0 0-.23-1.33 3.06 3.06 0 0 0-.74-1.16 3.74 3.74 0 0 0-1.4-.87 6 6 0 0 0-2.1-.31h-5.6v14h5.61a7.35 7.35 0 0 0 2-.25 4.44 4.44 0 0 0 1.54-.76 3.34 3.34 0 0 0 1-1.22 3.79 3.79 0 0 0 .36-1.69 3.16 3.16 0 0 0-.44-1.74 3.68 3.68 0 0 0-1.02-1.05zm-8.19-6.55h4.75a6.4 6.4 0 0 1 1.34.14 3.28 3.28 0 0 1 1.13.46 2.48 2.48 0 0 1 .79.85 2.61 2.61 0 0 1 .29 1.28A2.66 2.66 0 0 1 29.58 8a3.89 3.89 0 0 1-2.67.8h-4.75zm7.7 11.73a4.83 4.83 0 0 1-2.95.8h-4.75V9.55h4.75a8.48 8.48 0 0 1 1.4.13 4.18 4.18 0 0 1 1.3.46 2.78 2.78 0 0 1 .95.92 2.66 2.66 0 0 1 .37 1.48 2.75 2.75 0 0 1-1.07 2.38zm11.38.79a.66.66 0 0 1-.2-.29A1.59 1.59 0 0 1 41 15V8.73a2.39 2.39 0 0 0-.83-1.88 4.09 4.09 0 0 0-2.66-.71 4.29 4.29 0 0 0-2.86.86 3.31 3.31 0 0 0-1.07 2.51h.75a2.67 2.67 0 0 1 .91-2 3.44 3.44 0 0 1 2.19-.66 4.89 4.89 0 0 1 1.3.15 2.56 2.56 0 0 1 .86.43 1.93 1.93 0 0 1 .49.63 2 2 0 0 1 .16.77 5.35 5.35 0 0 1-.06.88 1 1 0 0 1-.3.58 1.54 1.54 0 0 1-.69.35 6.49 6.49 0 0 1-1.27.19l-1.16.1a12 12 0 0 0-1.26.19 4 4 0 0 0-1.2.47 2.54 2.54 0 0 0-1.25 2.32 2.56 2.56 0 0 0 .89 2.09 3.89 3.89 0 0 0 2.49.7 4.65 4.65 0 0 0 1.33-.18 4 4 0 0 0 1.09-.52 3.82 3.82 0 0 0 .82-.72 3.1 3.1 0 0 0 .51-.85V15a2.67 2.67 0 0 0 .05.58 1.11 1.11 0 0 0 .18.46.9.9 0 0 0 .4.31 1.8 1.8 0 0 0 .72.12 2.09 2.09 0 0 0 .61-.08v-.62a5 5 0 0 1-.55.05.63.63 0 0 1-.35-.11zm-1-3.1a5.13 5.13 0 0 1-.11.76 3.29 3.29 0 0 1-.5 1.16 3.55 3.55 0 0 1-1.14 1.06 3.8 3.8 0 0 1-2 .46 3.11 3.11 0 0 1-1.94-.54 1.93 1.93 0 0 1-.71-1.66 2.2 2.2 0 0 1 .27-1.15 2.16 2.16 0 0 1 .72-.69 3.33 3.33 0 0 1 1-.37c.37-.07.73-.12 1.1-.16l1.26-.12a10.24 10.24 0 0 0 1.24-.18 1.45 1.45 0 0 0 .84-.45zm10-6.24h.84l-4.35 11.17c-.21.5-.4.93-.58 1.29a2.12 2.12 0 0 1-.59.79 1.93 1.93 0 0 1-.94.39 13.37 13.37 0 0 1-1.42.06v-.64a5.06 5.06 0 0 0 1.26-.13 2 2 0 0 0 .84-.52 2.52 2.52 0 0 0 .45-.8c.16-.38.36-.91.59-1.58l-4.22-10H43l3.75 9.21zm11.04-3.92h.86l-5.24 14h-1l-5.22-14h.9l4.81 13.27zm1.51 3.92h.74v10.09h-.74zm0-3.92h.74v2h-.74zM73.25 7.6a4 4 0 0 0-1.36-1.07A4.33 4.33 0 0 0 70 6.14a4.38 4.38 0 0 0-2 .44 4.18 4.18 0 0 0-1.42 1.18 5.1 5.1 0 0 0-.86 1.71 7.11 7.11 0 0 0-.28 2 7.52 7.52 0 0 0 .27 2.05 4.77 4.77 0 0 0 .84 1.65 4 4 0 0 0 1.39 1.1 4.59 4.59 0 0 0 2 .4 4.43 4.43 0 0 0 2.94-.94 4.5 4.5 0 0 0 1.44-2.71h-.75a4.09 4.09 0 0 1-1.22 2.21 3.51 3.51 0 0 1-2.4.79 3.64 3.64 0 0 1-1.62-.35 3.31 3.31 0 0 1-1.16-1 4.24 4.24 0 0 1-.7-1.41 5.85 5.85 0 0 1-.24-1.69v-.11h8.17a1.7 1.7 0 0 1 0-.21 1.85 1.85 0 0 0 0-.23 6.26 6.26 0 0 0-.29-1.91 4.72 4.72 0 0 0-.86-1.51zm-7 3.27a6.13 6.13 0 0 1 .32-1.53A3.89 3.89 0 0 1 67.25 8a3.58 3.58 0 0 1 1.16-.9A3.51 3.51 0 0 1 70 6.79a3.32 3.32 0 0 1 1.51.33 3.48 3.48 0 0 1 1.12.88 4 4 0 0 1 .7 1.3 5.66 5.66 0 0 1 .27 1.56zM88 6.37h.82l-3.21 10.09h-.92l-2.76-9.14-2.83 9.14h-.94L75 6.37h.8l2.85 9.23 2.75-9.23h1l2.76 9.23zm2.53 8.07h1v2h-1zm4.52-12h.74v2h-.74zm0 3.92h.74v10.1h-.74zm11.61 3a5 5 0 0 0-.9-1.68 4.09 4.09 0 0 0-1.45-1.15 4.9 4.9 0 0 0-4 0 4.18 4.18 0 0 0-1.45 1.15A5 5 0 0 0 98 9.39a6.69 6.69 0 0 0-.3 2 6.8 6.8 0 0 0 .3 2 5 5 0 0 0 .89 1.68 4.67 4.67 0 0 0 5.42 1.14 4.43 4.43 0 0 0 1.45-1.14 5 5 0 0 0 .9-1.68 6.8 6.8 0 0 0 .3-2 6.69 6.69 0 0 0-.27-2zm-.7 3.76a4.75 4.75 0 0 1-.75 1.49 3.65 3.65 0 0 1-1.21 1 3.86 3.86 0 0 1-3.34 0 3.69 3.69 0 0 1-1.22-1 5 5 0 0 1-.74-1.49 5.84 5.84 0 0 1-.26-1.73 6 6 0 0 1 .26-1.74 4.78 4.78 0 0 1 .74-1.48 3.57 3.57 0 0 1 1.22-1 3.86 3.86 0 0 1 3.34 0 3.54 3.54 0 0 1 1.21 1 4.59 4.59 0 0 1 .79 1.51 6 6 0 0 1 .25 1.74 5.84 5.84 0 0 1-.25 1.73zM0 16.33h16.33V0H0zM.5.82l7.42 6.92v8.09H.5zm7.92 15V7.88h7.41v8zm7.41-8.45H8.26L.89.5h14.94z" fill="#fff"></path>
    </g>
</svg>