<svg preserveAspectRatio="xMidYMid meet" data-bbox="0 0 99.003 12.48" viewBox="0 0 99.003 12.48" xmlns="http://www.w3.org/2000/svg" role="img">
    <g>
        <path d="M32.45 9.93a3.5 3.5 0 0 1-.56.66 3.89 3.89 0 0 1-.76.55 4.07 4.07 0 0 1-1 .37 4.56 4.56 0 0 1-1.14.14 5 5 0 0 1-1.92-.36 4.47 4.47 0 0 1-2.5-2.52 5.24 5.24 0 0 1-.35-1.92 5.06 5.06 0 0 1 .36-1.93 4.52 4.52 0 0 1 2.55-2.52A5 5 0 0 1 29 2a4.6 4.6 0 0 1 1 .11 4.21 4.21 0 0 1 .91.29 3.73 3.73 0 0 1 .78.46 2.74 2.74 0 0 1 .58.6l-.77.57a3 3 0 0 0-.38-.44 2.39 2.39 0 0 0-.57-.39 3.64 3.64 0 0 0-.7-.27 3.12 3.12 0 0 0-.82-.1 3.72 3.72 0 0 0-1.6.32 3.46 3.46 0 0 0-1.19.87 3.68 3.68 0 0 0-.75 1.27 4.49 4.49 0 0 0-.26 1.52 4.35 4.35 0 0 0 .27 1.52 3.64 3.64 0 0 0 .75 1.26 3.5 3.5 0 0 0 1.2.87 3.66 3.66 0 0 0 1.58.32 3.55 3.55 0 0 0 1.5-.32 2.85 2.85 0 0 0 1.19-1zm2.48-3.56a1.82 1.82 0 0 1 .81-.84A2.49 2.49 0 0 1 37 5.22a2.14 2.14 0 0 1 1.72.68 2.75 2.75 0 0 1 .58 1.81v3.71h-.88V8.07a4.49 4.49 0 0 0-.08-.86 1.91 1.91 0 0 0-.34-.67 1.34 1.34 0 0 0-.51-.43 1.82 1.82 0 0 0-.75-.11 1.6 1.6 0 0 0-.68.15 1.63 1.63 0 0 0-.59.43 2.1 2.1 0 0 0-.41.74 3 3 0 0 0-.16 1.05v3.1H34V1.65h.88v4.72zm9.89 1.14a1.54 1.54 0 0 0-.41-1.17 1.7 1.7 0 0 0-1.2-.34 2.6 2.6 0 0 0-1 .2 2.56 2.56 0 0 0-.79.51l-.49-.58a3 3 0 0 1 1-.62 3.79 3.79 0 0 1 1.39-.24 3.05 3.05 0 0 1 .92.13 2.28 2.28 0 0 1 .75.41 1.86 1.86 0 0 1 .5.69 2.35 2.35 0 0 1 .18 1v3.38c0 .25 0 .46.08.63H45c0-.15 0-.31-.07-.48a4.32 4.32 0 0 1 0-.5 2.65 2.65 0 0 1-.94.87 2.86 2.86 0 0 1-1.26.26 2.94 2.94 0 0 1-.71-.09 2.12 2.12 0 0 1-.68-.32 1.84 1.84 0 0 1-.5-.57 1.74 1.74 0 0 1-.2-.86 1.6 1.6 0 0 1 .36-1.1 2 2 0 0 1 .86-.72 5.47 5.47 0 0 1 1.37-.26q.77-.04 1.59-.04zm-.26.89h-1.09a4.84 4.84 0 0 0-1 .18 1.77 1.77 0 0 0-.73.4.88.88 0 0 0-.29.68 1.08 1.08 0 0 0 .13.54 1 1 0 0 0 .33.36 1.35 1.35 0 0 0 .46.19 2.07 2.07 0 0 0 .5.06 2 2 0 0 0 .83-.16 1.84 1.84 0 0 0 .61-.44 2 2 0 0 0 .37-.64 2.13 2.13 0 0 0 .13-.76V8.4zm6.57-1.59a1.59 1.59 0 0 0-.59-.62 1.68 1.68 0 0 0-.9-.24 1.82 1.82 0 0 0-.46.06 1.31 1.31 0 0 0-.42.16 1 1 0 0 0-.29.3.83.83 0 0 0-.11.43.74.74 0 0 0 .35.65 3.28 3.28 0 0 0 1.1.38 3.72 3.72 0 0 1 1.58.64 1.39 1.39 0 0 1 .51 1.13 1.78 1.78 0 0 1-.2.87 1.71 1.71 0 0 1-.52.58 2.31 2.31 0 0 1-.73.33 3.81 3.81 0 0 1-.82.09 3.24 3.24 0 0 1-1.33-.28 2.47 2.47 0 0 1-1.06-.89l.7-.52a1.82 1.82 0 0 0 .68.67 1.89 1.89 0 0 0 1 .27 2.5 2.5 0 0 0 .55-.05 1.12 1.12 0 0 0 .45-.18.9.9 0 0 0 .31-.33.94.94 0 0 0 .07-.49.78.78 0 0 0-.46-.72 6.14 6.14 0 0 0-1.33-.45 5 5 0 0 1-.57-.16 2 2 0 0 1-.56-.28 1.6 1.6 0 0 1-.43-.47 1.42 1.42 0 0 1-.13-.69 1.62 1.62 0 0 1 .18-.79 1.49 1.49 0 0 1 .49-.54 2.19 2.19 0 0 1 .69-.32 3 3 0 0 1 .8-.1 2.83 2.83 0 0 1 1.23.28 2 2 0 0 1 .89.8zm8 1.41v.19a1.8 1.8 0 0 1 0 .22h-5a2.44 2.44 0 0 0 .18.85 2.1 2.1 0 0 0 .47.7 2.27 2.27 0 0 0 .7.47 2 2 0 0 0 .86.17 2.14 2.14 0 0 0 1.18-.31 2.42 2.42 0 0 0 .76-.73l.66.51a3.25 3.25 0 0 1-1.2 1 3.44 3.44 0 0 1-1.4.29 3.24 3.24 0 0 1-1.25-.24 2.78 2.78 0 0 1-1-.66 3.05 3.05 0 0 1-.66-1 3.28 3.28 0 0 1-.23-1.26 3.3 3.3 0 0 1 .23-1.27 2.92 2.92 0 0 1 1.61-1.67 3 3 0 0 1 1.2-.24 3.11 3.11 0 0 1 1.26.24 2.58 2.58 0 0 1 .9.64 2.89 2.89 0 0 1 .55 1 3.68 3.68 0 0 1 .2 1.1zm-.89-.29a2.18 2.18 0 0 0-.55-1.41A1.86 1.86 0 0 0 56.25 6a2 2 0 0 0-.81.17 2 2 0 0 0-.66.44 2 2 0 0 0-.45.63 2.14 2.14 0 0 0-.2.74zm2.82-5.66h2.73a5.51 5.51 0 0 1 1 .11 3 3 0 0 1 1 .38 2 2 0 0 1 .68.71 2.24 2.24 0 0 1 .27 1.14 1.91 1.91 0 0 1-.45 1.26 2 2 0 0 1-1.18.7 2.44 2.44 0 0 1 1.48.69 2.17 2.17 0 0 1 .58 1.6 2.4 2.4 0 0 1-.23 1 2.36 2.36 0 0 1-.68.8 3.22 3.22 0 0 1-1.07.51 5.15 5.15 0 0 1-1.42.18h-2.69zm.93 4h1.88a3.23 3.23 0 0 0 .68-.08 2 2 0 0 0 .62-.26 1.57 1.57 0 0 0 .46-.5 1.5 1.5 0 0 0 .17-.76 1.46 1.46 0 0 0-.17-.75 1.38 1.38 0 0 0-.47-.49 1.91 1.91 0 0 0-.7-.28 3.89 3.89 0 0 0-.85-.09H62zm0 4.34h1.74a4.34 4.34 0 0 0 1-.1 2.47 2.47 0 0 0 .8-.31 1.7 1.7 0 0 0 .55-.55 1.67 1.67 0 0 0 .2-.83 1.53 1.53 0 0 0-.61-1.34A2.91 2.91 0 0 0 63.91 7H62zm7-4.55v-.7h.84V6.4a2.15 2.15 0 0 1 1.94-1.19h.58l-.11.84h-.26a2.19 2.19 0 0 0-.36 0 1.86 1.86 0 0 0-.67.13 1.54 1.54 0 0 0-.57.41 1.92 1.92 0 0 0-.38.71 3.17 3.17 0 0 0-.15 1v3.09H69V6.07zM77.2 7.5a1.54 1.54 0 0 0-.41-1.17A1.7 1.7 0 0 0 75.58 6a2.6 2.6 0 0 0-1 .2 2.56 2.56 0 0 0-.79.51l-.49-.58a3 3 0 0 1 1-.62 3.79 3.79 0 0 1 1.39-.24 3 3 0 0 1 .91.13 2.1 2.1 0 0 1 .75.41 1.78 1.78 0 0 1 .51.69 2.35 2.35 0 0 1 .18 1v3.38c0 .25 0 .46.08.63h-.79l-.06-.48a4.32 4.32 0 0 1 0-.5 2.65 2.65 0 0 1-.94.87 2.86 2.86 0 0 1-1.26.26 3.08 3.08 0 0 1-.72-.09 2.07 2.07 0 0 1-.67-.32 1.84 1.84 0 0 1-.5-.57 1.74 1.74 0 0 1-.2-.86 1.65 1.65 0 0 1 .35-1.1 2.09 2.09 0 0 1 1-.61 5.38 5.38 0 0 1 1.37-.26q.77-.06 1.59-.06zm-.26.89h-1.09a4.6 4.6 0 0 0-1 .18 1.77 1.77 0 0 0-.73.4.88.88 0 0 0-.29.68 1 1 0 0 0 .13.54 1 1 0 0 0 .32.36 1.54 1.54 0 0 0 .46.19 2.22 2.22 0 0 0 .51.06 2 2 0 0 0 .83-.16 1.78 1.78 0 0 0 1-1.08 2.13 2.13 0 0 0 .13-.76v-.4zm3.62-3v1.04a1.93 1.93 0 0 1 .84-.86 2.4 2.4 0 0 1 1.22-.33 2.16 2.16 0 0 1 1.73.68A2.74 2.74 0 0 1 85 7.71v3.71h-.88V8.07a4.54 4.54 0 0 0-.12-.86 1.92 1.92 0 0 0-.27-.67 1.24 1.24 0 0 0-.5-.43 1.87 1.87 0 0 0-.8-.16 1.56 1.56 0 0 0-.67.15 1.63 1.63 0 0 0-.59.43 2.1 2.1 0 0 0-.41.74 3 3 0 0 0-.16 1.05v3.1h-.88V5.37zm11.17 5a2.46 2.46 0 0 1-1 .88 3 3 0 0 1-1.27.29 3.3 3.3 0 0 1-1.29-.24 2.9 2.9 0 0 1-1.61-1.68 3.27 3.27 0 0 1-.23-1.25 3.28 3.28 0 0 1 .23-1.26 3 3 0 0 1 .63-1 3 3 0 0 1 1-.68 3.3 3.3 0 0 1 1.29-.24 2.89 2.89 0 0 1 1.27.3 2.43 2.43 0 0 1 1 .9V1.65h.88v9.77h-.88v-1zm-4.48-2a3 3 0 0 0 .15.95 2.56 2.56 0 0 0 .45.77 2 2 0 0 0 .72.52 2.43 2.43 0 0 0 1 .18 2.21 2.21 0 0 0 1.66-.69 2.36 2.36 0 0 0 .49-.77 2.82 2.82 0 0 0 0-1.93 2.47 2.47 0 0 0-.49-.77 2.26 2.26 0 0 0-.73-.52 2.41 2.41 0 0 0-.97-.13 2.27 2.27 0 0 0-1 .2 2 2 0 0 0-.72.52 2.49 2.49 0 0 0-.45.78 2.91 2.91 0 0 0-.12.9zm11-1.59a1.56 1.56 0 0 0-.58-.62 1.73 1.73 0 0 0-.9-.24 1.89 1.89 0 0 0-.47.06 1.35 1.35 0 0 0-.41.16.92.92 0 0 0-.29.3.83.83 0 0 0-.11.43.74.74 0 0 0 .35.65 3.28 3.28 0 0 0 1.1.38 3.72 3.72 0 0 1 1.58.64A1.39 1.39 0 0 1 99 9.7a1.78 1.78 0 0 1-.2.87 1.82 1.82 0 0 1-.52.58 2.26 2.26 0 0 1-.74.33 3.72 3.72 0 0 1-.81.09 3.32 3.32 0 0 1-1.34-.28 2.44 2.44 0 0 1-1-.89l.61-.52a1.93 1.93 0 0 0 .69.67 1.89 1.89 0 0 0 1 .27 2.36 2.36 0 0 0 .54-.05 1.11 1.11 0 0 0 .46-.18.9.9 0 0 0 .31-.33 1 1 0 0 0 .11-.49.77.77 0 0 0-.46-.72 5.84 5.84 0 0 0-1.32-.45 5 5 0 0 1-.57-.16 2 2 0 0 1-.57-.28 1.71 1.71 0 0 1-.42-.47 1.42 1.42 0 0 1-.18-.69 1.62 1.62 0 0 1 .18-.79 1.49 1.49 0 0 1 .49-.54 2.19 2.19 0 0 1 .74-.35 3 3 0 0 1 .8-.1 2.76 2.76 0 0 1 1.2.28 2 2 0 0 1 .9.8zm-88.6-.12a2.9 2.9 0 1 0 2.9 2.89 2.89 2.89 0 0 0-2.9-2.89zm-6.75 0a2.9 2.9 0 1 0 2.9 2.89 2.89 2.89 0 0 0-2.9-2.89zm13.5 0a2.9 2.9 0 1 0 2.9 2.89 2.89 2.89 0 0 0-2.9-2.89zM9.65 0a2.9 2.9 0 1 0 2.9 2.9A2.9 2.9 0 0 0 9.65 0zm6.75 5.8a2.9 2.9 0 1 0-2.9-2.9 2.9 2.9 0 0 0 2.9 2.9z" fill="#fff"></path>
    </g>
</svg>